<?xml version="1.0" encoding="UTF-8" standalone="no"?>
<svg
   width="1024"
   height="1024"
   viewBox="0 0 1024 1024"
   version="1.1"
   xmlns="http://www.w3.org/2000/svg">
  <!-- 圆形背景 -->
  <circle
     cx="512"
     cy="512"
     r="512"
     fill="#2196f3" />
  
  <!-- 手指触摸图标 -->
  <path
     d="M 512,256 C 494.4,256 480,270.4 480,288 V 480 H 416 C 398.4,480 384,494.4 384,512 c 0,17.6 14.4,32 32,32 h 96 c 17.6,0 32,-14.4 32,-32 V 288 c 0,-17.6 -14.4,-32 -32,-32 z m 96,288 v 96 c 0,17.6 -14.4,32 -32,32 H 448 c -17.6,0 -32,-14.4 -32,-32 V 576 C 416,558.4 430.4,544 448,544 h 128 c 17.6,0 32,14.4 32,32 z m 128,0 c 0,-53.02 -42.98,-96 -96,-96 H 448 c -53.02,0 -96,42.98 -96,96 v 96 c 0,53.02 42.98,96 96,96 h 192 c 53.02,0 96,-42.98 96,-96 z"
     fill="#ffffff" />
</svg> 